<svg width="512" height="512" viewBox="0 0 512 512" fill="none" xmlns="http://www.w3.org/2000/svg">
<path d="M256 2.56C329.751 2.56 399.606 19.7318 461.685 50.32C481.965 60.3136 490.312 84.847 480.335 105.135L292.754 486.555C285.864 500.564 271.611 509.44 255.999 509.44C240.388 509.44 226.134 500.564 219.244 486.555L31.66 105.135C21.683 84.847 30.0302 60.3136 50.31 50.32C112.391 19.73 182.249 2.56 256 2.56Z" fill="#3D82F0"/>
<path d="M256 2.56C329.751 2.56 399.606 19.7318 461.685 50.32C481.965 60.3136 490.312 84.847 480.335 105.135L458.859 148.79C397.488 119.065 328.634 102.4 255.999 102.4C183.361 102.4 114.503 119.062 53.1291 148.79L31.66 105.135C21.683 84.847 30.0302 60.3136 50.31 50.32C112.391 19.73 182.249 2.56 256 2.56Z" fill="#7DA8FA"/>
</svg>
